<?xml version="1.0" encoding="utf-8" standalone="no"?>
<!DOCTYPE svg PUBLIC "-//W3C//DTD SVG 1.1//EN"
  "http://www.w3.org/Graphics/SVG/1.1/DTD/svg11.dtd">
<svg xmlns:xlink="http://www.w3.org/1999/xlink" width="516.283278pt" height="284.792156pt" viewBox="0 0 516.283278 284.792156" xmlns="http://www.w3.org/2000/svg" version="1.1">
 <metadata>
  <rdf:RDF xmlns:dc="http://purl.org/dc/elements/1.1/" xmlns:cc="http://creativecommons.org/ns#" xmlns:rdf="http://www.w3.org/1999/02/22-rdf-syntax-ns#">
   <cc:Work>
    <dc:type rdf:resource="http://purl.org/dc/dcmitype/StillImage"/>
    <dc:date>2026-06-24T13:17:55.045821</dc:date>
    <dc:format>image/svg+xml</dc:format>
    <dc:creator>
     <cc:Agent>
      <dc:title>Matplotlib v3.11.0, https://matplotlib.org/</dc:title>
     </cc:Agent>
    </dc:creator>
   </cc:Work>
  </rdf:RDF>
 </metadata>
 <defs>
  <style type="text/css">*{stroke-linejoin: round; stroke-linecap: butt}</style>
 </defs>
 <g id="figure_1">
  <g id="patch_1">
   <path d="M 0 284.792156 
L 516.283278 284.792156 
L 516.283278 0 
L 0 0 
z
" style="fill: #ffffff"/>
  </g>
  <g id="axes_1">
   <g id="patch_2">
    <path d="M 95.910781 251.171043 
L 206.80818 251.171043 
L 206.80818 57.984 
L 95.910781 57.984 
z
" style="fill: #ffffff"/>
   </g>
   <g id="matplotlib.axis_1">
    <g id="xtick_1">
     <g id="line2d_1">
      <path d="M 95.910781 251.171043 
L 95.910781 57.984 
" clip-path="url(#p9cb01c5e36)" style="fill: none; stroke: #e5e7eb; stroke-width: 0.6; stroke-linecap: square"/>
     </g>
     <g id="line2d_2">
      <defs>
       <path id="m0d3e6c9bbb" d="M 0 0 
L 0 3.5 
" style="stroke: #000000; stroke-width: 0.8"/>
      </defs>
      <g>
       <use xlink:href="#m0d3e6c9bbb" x="95.910781" y="251.171043" style="stroke: #000000; stroke-width: 0.8"/>
      </g>
     </g>
     <g id="text_1">
      <text style="font-size: 7px; font-family: 'Arial', 'Helvetica', 'DejaVu Sans', sans-serif; text-anchor: middle" x="95.910781" y="263.267234" transform="rotate(-0 95.910781 263.267234)">0.0</text>
     </g>
    </g>
    <g id="xtick_2">
     <g id="line2d_3">
      <path d="M 137.999519 251.171043 
L 137.999519 57.984 
" clip-path="url(#p9cb01c5e36)" style="fill: none; stroke: #e5e7eb; stroke-width: 0.6; stroke-linecap: square"/>
     </g>
     <g id="line2d_4">
      <g>
       <use xlink:href="#m0d3e6c9bbb" x="137.999519" y="251.171043" style="stroke: #000000; stroke-width: 0.8"/>
      </g>
     </g>
     <g id="text_2">
      <text style="font-size: 7px; font-family: 'Arial', 'Helvetica', 'DejaVu Sans', sans-serif; text-anchor: middle" x="137.999519" y="263.267234" transform="rotate(-0 137.999519 263.267234)">0.5</text>
     </g>
    </g>
    <g id="xtick_3">
     <g id="line2d_5">
      <path d="M 180.088257 251.171043 
L 180.088257 57.984 
" clip-path="url(#p9cb01c5e36)" style="fill: none; stroke: #e5e7eb; stroke-width: 0.6; stroke-linecap: square"/>
     </g>
     <g id="line2d_6">
      <g>
       <use xlink:href="#m0d3e6c9bbb" x="180.088257" y="251.171043" style="stroke: #000000; stroke-width: 0.8"/>
      </g>
     </g>
     <g id="text_3">
      <text style="font-size: 7px; font-family: 'Arial', 'Helvetica', 'DejaVu Sans', sans-serif; text-anchor: middle" x="180.088257" y="263.267234" transform="rotate(-0 180.088257 263.267234)">1.0</text>
     </g>
    </g>
    <g id="text_4">
     <text style="font-size: 8px; font-family: 'Arial', 'Helvetica', 'DejaVu Sans', sans-serif; text-anchor: middle" x="151.35948" y="274.564598" transform="rotate(-0 151.35948 274.564598)">local-mutation / random-noise L2</text>
    </g>
   </g>
   <g id="matplotlib.axis_2">
    <g id="ytick_1">
     <g id="line2d_7">
      <defs>
       <path id="ma0135f4fc2" d="M 0 0 
L -3.5 0 
" style="stroke: #000000; stroke-width: 0.8"/>
      </defs>
      <g>
       <use xlink:href="#ma0135f4fc2" x="95.910781" y="75.771618" style="stroke: #000000; stroke-width: 0.8"/>
      </g>
     </g>
     <g id="text_5">
      <text style="font-size: 7px; font-family: 'Arial', 'Helvetica', 'DejaVu Sans', sans-serif; text-anchor: end" x="88.910781" y="78.319714" transform="rotate(-0 88.910781 78.319714)">CK4 count</text>
     </g>
    </g>
    <g id="ytick_2">
     <g id="line2d_8">
      <g>
       <use xlink:href="#ma0135f4fc2" x="95.910781" y="98.287591" style="stroke: #000000; stroke-width: 0.8"/>
      </g>
     </g>
     <g id="text_6">
      <text style="font-size: 7px; font-family: 'Arial', 'Helvetica', 'DejaVu Sans', sans-serif; text-anchor: end" x="88.910781" y="100.835686" transform="rotate(-0 88.910781 100.835686)">CK4+P global</text>
     </g>
    </g>
    <g id="ytick_3">
     <g id="line2d_9">
      <g>
       <use xlink:href="#ma0135f4fc2" x="95.910781" y="120.803563" style="stroke: #000000; stroke-width: 0.8"/>
      </g>
     </g>
     <g id="text_7">
      <text style="font-size: 7px; font-family: 'Arial', 'Helvetica', 'DejaVu Sans', sans-serif; text-anchor: end" x="88.910781" y="123.351659" transform="rotate(-0 88.910781 123.351659)">CK4P-MSP</text>
     </g>
    </g>
    <g id="ytick_4">
     <g id="line2d_10">
      <g>
       <use xlink:href="#ma0135f4fc2" x="95.910781" y="143.319535" style="stroke: #000000; stroke-width: 0.8"/>
      </g>
     </g>
     <g id="text_8">
      <text style="font-size: 7px; font-family: 'Arial', 'Helvetica', 'DejaVu Sans', sans-serif; text-anchor: end" x="88.910781" y="145.867631" transform="rotate(-0 88.910781 145.867631)">CSP control</text>
     </g>
    </g>
    <g id="ytick_5">
     <g id="line2d_11">
      <g>
       <use xlink:href="#ma0135f4fc2" x="95.910781" y="165.835508" style="stroke: #000000; stroke-width: 0.8"/>
      </g>
     </g>
     <g id="text_9">
      <text style="font-size: 7px; font-family: 'Arial', 'Helvetica', 'DejaVu Sans', sans-serif; text-anchor: end" x="88.910781" y="168.383603" transform="rotate(-0 88.910781 168.383603)">position one-hot</text>
     </g>
    </g>
    <g id="ytick_6">
     <g id="line2d_12">
      <g>
       <use xlink:href="#ma0135f4fc2" x="95.910781" y="188.35148" style="stroke: #000000; stroke-width: 0.8"/>
      </g>
     </g>
     <g id="text_10">
      <text style="font-size: 7px; font-family: 'Arial', 'Helvetica', 'DejaVu Sans', sans-serif; text-anchor: end" x="88.910781" y="190.899576" transform="rotate(-0 88.910781 190.899576)">position property channels</text>
     </g>
    </g>
    <g id="ytick_7">
     <g id="line2d_13">
      <g>
       <use xlink:href="#ma0135f4fc2" x="95.910781" y="210.867452" style="stroke: #000000; stroke-width: 0.8"/>
      </g>
     </g>
     <g id="text_11">
      <text style="font-size: 7px; font-family: 'Arial', 'Helvetica', 'DejaVu Sans', sans-serif; text-anchor: end" x="88.910781" y="213.415548" transform="rotate(-0 88.910781 213.415548)">one-hot + property</text>
     </g>
    </g>
    <g id="ytick_8">
     <g id="line2d_14">
      <g>
       <use xlink:href="#ma0135f4fc2" x="95.910781" y="233.383425" style="stroke: #000000; stroke-width: 0.8"/>
      </g>
     </g>
     <g id="text_12">
      <text style="font-size: 7px; font-family: 'Arial', 'Helvetica', 'DejaVu Sans', sans-serif; text-anchor: end" x="88.910781" y="235.93152" transform="rotate(-0 88.910781 235.93152)">position k-mer property</text>
     </g>
    </g>
   </g>
   <g id="patch_3">
    <path d="M 95.910781 66.765229 
L 159.076106 66.765229 
L 159.076106 84.778007 
L 95.910781 84.778007 
z
" clip-path="url(#p9cb01c5e36)" style="fill: #6b7280; stroke: #111827; stroke-width: 0.4; stroke-linejoin: miter"/>
   </g>
   <g id="patch_4">
    <path d="M 95.910781 89.281202 
L 159.240835 89.281202 
L 159.240835 107.293979 
L 95.910781 107.293979 
z
" clip-path="url(#p9cb01c5e36)" style="fill: #2563eb; stroke: #111827; stroke-width: 0.4; stroke-linejoin: miter"/>
   </g>
   <g id="patch_5">
    <path d="M 95.910781 111.797174 
L 159.385648 111.797174 
L 159.385648 129.809952 
L 95.910781 129.809952 
z
" clip-path="url(#p9cb01c5e36)" style="fill: #16a34a; stroke: #111827; stroke-width: 0.4; stroke-linejoin: miter"/>
   </g>
   <g id="patch_6">
    <path d="M 95.910781 134.313146 
L 175.615211 134.313146 
L 175.615211 152.325924 
L 95.910781 152.325924 
z
" clip-path="url(#p9cb01c5e36)" style="fill: #d97706; stroke: #111827; stroke-width: 0.4; stroke-linejoin: miter"/>
   </g>
   <g id="patch_7">
    <path d="M 95.910781 156.829119 
L 180.088257 156.829119 
L 180.088257 174.841897 
L 95.910781 174.841897 
z
" clip-path="url(#p9cb01c5e36)" style="fill: #7c3aed; stroke: #111827; stroke-width: 0.4; stroke-linejoin: miter"/>
   </g>
   <g id="patch_8">
    <path d="M 95.910781 179.345091 
L 201.527351 179.345091 
L 201.527351 197.357869 
L 95.910781 197.357869 
z
" clip-path="url(#p9cb01c5e36)" style="fill: #dc2626; stroke: #111827; stroke-width: 0.4; stroke-linejoin: miter"/>
   </g>
   <g id="patch_9">
    <path d="M 95.910781 201.861063 
L 188.627002 201.861063 
L 188.627002 219.873841 
L 95.910781 219.873841 
z
" clip-path="url(#p9cb01c5e36)" style="fill: #db2777; stroke: #111827; stroke-width: 0.4; stroke-linejoin: miter"/>
   </g>
   <g id="patch_10">
    <path d="M 95.910781 224.377036 
L 190.648628 224.377036 
L 190.648628 242.389814 
L 95.910781 242.389814 
z
" clip-path="url(#p9cb01c5e36)" style="fill: #0891b2; stroke: #111827; stroke-width: 0.4; stroke-linejoin: miter"/>
   </g>
   <g id="line2d_15">
    <path d="M 180.088257 251.171043 
L 180.088257 57.984 
" clip-path="url(#p9cb01c5e36)" style="fill: none; stroke-dasharray: 3.33,1.44; stroke-dashoffset: 0; stroke: #111827; stroke-width: 0.9"/>
   </g>
   <g id="patch_11">
    <path d="M 95.910781 251.171043 
L 95.910781 57.984 
" style="fill: none; stroke: #000000; stroke-width: 0.8; stroke-linejoin: miter; stroke-linecap: square"/>
   </g>
   <g id="patch_12">
    <path d="M 95.910781 251.171043 
L 206.80818 251.171043 
" style="fill: none; stroke: #000000; stroke-width: 0.8; stroke-linejoin: miter; stroke-linecap: square"/>
   </g>
   <g id="text_13">
    <text style="font-size: 6.4px; font-family: 'Arial', 'Helvetica', 'DejaVu Sans', sans-serif; text-anchor: start; fill: #374151" x="180.930032" y="67.891028" transform="rotate(-0 180.930032 67.891028)">local change moves farther</text>
   </g>
   <g id="text_14">
    <text style="font-size: 9px; font-family: 'Arial', 'Helvetica', 'DejaVu Sans', sans-serif; text-anchor: middle" x="151.35948" y="51.984" transform="rotate(-0 151.35948 51.984)">A. Distance-based selective sensitivity</text>
   </g>
  </g>
  <g id="axes_2">
   <g id="patch_13">
    <path d="M 280.722448 251.171043 
L 412.743161 251.171043 
L 412.743161 57.984 
L 280.722448 57.984 
z
" style="fill: #ffffff"/>
   </g>
   <g id="matplotlib.axis_3">
    <g id="xtick_4">
     <g id="line2d_16">
      <path d="M 280.722448 251.171043 
L 280.722448 57.984 
" clip-path="url(#pda2a893a73)" style="fill: none; stroke: #e5e7eb; stroke-width: 0.6; stroke-linecap: square"/>
     </g>
     <g id="line2d_17">
      <g>
       <use xlink:href="#m0d3e6c9bbb" x="280.722448" y="251.171043" style="stroke: #000000; stroke-width: 0.8"/>
      </g>
     </g>
     <g id="text_15">
      <!-- $\mathdefault{10^{2}}$ -->
      <g transform="translate(275.332448 264.611043)">
       <text>
        <tspan x="0" y="-0.587125" style="font-size: 7px; font-family: 'Arial'">1</tspan>
        <tspan x="3.893066" y="-0.587125" style="font-size: 7px; font-family: 'Arial'">0</tspan>
        <tspan x="7.853125" y="-3.478125" style="font-size: 4.9px; font-family: 'Arial'">2</tspan>
       </text>
      </g>
     </g>
    </g>
    <g id="xtick_5">
     <g id="line2d_18">
      <path d="M 374.025062 251.171043 
L 374.025062 57.984 
" clip-path="url(#pda2a893a73)" style="fill: none; stroke: #e5e7eb; stroke-width: 0.6; stroke-linecap: square"/>
     </g>
     <g id="line2d_19">
      <g>
       <use xlink:href="#m0d3e6c9bbb" x="374.025062" y="251.171043" style="stroke: #000000; stroke-width: 0.8"/>
      </g>
     </g>
     <g id="text_16">
      <!-- $\mathdefault{10^{3}}$ -->
      <g transform="translate(368.635062 264.611043)">
       <text>
        <tspan x="0" y="-0.587125" style="font-size: 7px; font-family: 'Arial'">1</tspan>
        <tspan x="3.893066" y="-0.587125" style="font-size: 7px; font-family: 'Arial'">0</tspan>
        <tspan x="7.853125" y="-3.478125" style="font-size: 4.9px; font-family: 'Arial'">3</tspan>
       </text>
      </g>
     </g>
    </g>
    <g id="xtick_6">
     <g id="line2d_20">
      <defs>
       <path id="mb197309c78" d="M 0 0 
L 0 2 
" style="stroke: #000000; stroke-width: 0.6"/>
      </defs>
      <g>
       <use xlink:href="#mb197309c78" x="308.809334" y="251.171043" style="stroke: #000000; stroke-width: 0.6"/>
      </g>
     </g>
    </g>
    <g id="xtick_7">
     <g id="line2d_21">
      <g>
       <use xlink:href="#mb197309c78" x="325.239109" y="251.171043" style="stroke: #000000; stroke-width: 0.6"/>
      </g>
     </g>
    </g>
    <g id="xtick_8">
     <g id="line2d_22">
      <g>
       <use xlink:href="#mb197309c78" x="336.896219" y="251.171043" style="stroke: #000000; stroke-width: 0.6"/>
      </g>
     </g>
    </g>
    <g id="xtick_9">
     <g id="line2d_23">
      <g>
       <use xlink:href="#mb197309c78" x="345.938177" y="251.171043" style="stroke: #000000; stroke-width: 0.6"/>
      </g>
     </g>
    </g>
    <g id="xtick_10">
     <g id="line2d_24">
      <g>
       <use xlink:href="#mb197309c78" x="353.325994" y="251.171043" style="stroke: #000000; stroke-width: 0.6"/>
      </g>
     </g>
    </g>
    <g id="xtick_11">
     <g id="line2d_25">
      <g>
       <use xlink:href="#mb197309c78" x="359.572305" y="251.171043" style="stroke: #000000; stroke-width: 0.6"/>
      </g>
     </g>
    </g>
    <g id="xtick_12">
     <g id="line2d_26">
      <g>
       <use xlink:href="#mb197309c78" x="364.983105" y="251.171043" style="stroke: #000000; stroke-width: 0.6"/>
      </g>
     </g>
    </g>
    <g id="xtick_13">
     <g id="line2d_27">
      <g>
       <use xlink:href="#mb197309c78" x="369.755769" y="251.171043" style="stroke: #000000; stroke-width: 0.6"/>
      </g>
     </g>
    </g>
    <g id="xtick_14">
     <g id="line2d_28">
      <g>
       <use xlink:href="#mb197309c78" x="402.111948" y="251.171043" style="stroke: #000000; stroke-width: 0.6"/>
      </g>
     </g>
    </g>
    <g id="text_17">
     <text style="font-size: 8px; font-family: 'Arial', 'Helvetica', 'DejaVu Sans', sans-serif; text-anchor: middle" x="346.732804" y="275.908406" transform="rotate(-0 346.732804 275.908406)">feature dimension (log scale)</text>
    </g>
   </g>
   <g id="matplotlib.axis_4">
    <g id="ytick_9">
     <g id="line2d_29">
      <path d="M 280.722448 231.047393 
L 412.743161 231.047393 
" clip-path="url(#pda2a893a73)" style="fill: none; stroke: #e5e7eb; stroke-width: 0.6; stroke-linecap: square"/>
     </g>
     <g id="line2d_30">
      <g>
       <use xlink:href="#ma0135f4fc2" x="280.722448" y="231.047393" style="stroke: #000000; stroke-width: 0.8"/>
      </g>
     </g>
     <g id="text_18">
      <text style="font-size: 7px; font-family: 'Arial', 'Helvetica', 'DejaVu Sans', sans-serif; text-anchor: end" x="273.722448" y="233.595488" transform="rotate(-0 273.722448 233.595488)">0.6</text>
     </g>
    </g>
    <g id="ytick_10">
     <g id="line2d_31">
      <path d="M 280.722448 190.800092 
L 412.743161 190.800092 
" clip-path="url(#pda2a893a73)" style="fill: none; stroke: #e5e7eb; stroke-width: 0.6; stroke-linecap: square"/>
     </g>
     <g id="line2d_32">
      <g>
       <use xlink:href="#ma0135f4fc2" x="280.722448" y="190.800092" style="stroke: #000000; stroke-width: 0.8"/>
      </g>
     </g>
     <g id="text_19">
      <text style="font-size: 7px; font-family: 'Arial', 'Helvetica', 'DejaVu Sans', sans-serif; text-anchor: end" x="273.722448" y="193.348188" transform="rotate(-0 273.722448 193.348188)">0.7</text>
     </g>
    </g>
    <g id="ytick_11">
     <g id="line2d_33">
      <path d="M 280.722448 150.552791 
L 412.743161 150.552791 
" clip-path="url(#pda2a893a73)" style="fill: none; stroke: #e5e7eb; stroke-width: 0.6; stroke-linecap: square"/>
     </g>
     <g id="line2d_34">
      <g>
       <use xlink:href="#ma0135f4fc2" x="280.722448" y="150.552791" style="stroke: #000000; stroke-width: 0.8"/>
      </g>
     </g>
     <g id="text_20">
      <text style="font-size: 7px; font-family: 'Arial', 'Helvetica', 'DejaVu Sans', sans-serif; text-anchor: end" x="273.722448" y="153.100887" transform="rotate(-0 273.722448 153.100887)">0.8</text>
     </g>
    </g>
    <g id="ytick_12">
     <g id="line2d_35">
      <path d="M 280.722448 110.305491 
L 412.743161 110.305491 
" clip-path="url(#pda2a893a73)" style="fill: none; stroke: #e5e7eb; stroke-width: 0.6; stroke-linecap: square"/>
     </g>
     <g id="line2d_36">
      <g>
       <use xlink:href="#ma0135f4fc2" x="280.722448" y="110.305491" style="stroke: #000000; stroke-width: 0.8"/>
      </g>
     </g>
     <g id="text_21">
      <text style="font-size: 7px; font-family: 'Arial', 'Helvetica', 'DejaVu Sans', sans-serif; text-anchor: end" x="273.722448" y="112.853587" transform="rotate(-0 273.722448 112.853587)">0.9</text>
     </g>
    </g>
    <g id="ytick_13">
     <g id="line2d_37">
      <path d="M 280.722448 70.05819 
L 412.743161 70.05819 
" clip-path="url(#pda2a893a73)" style="fill: none; stroke: #e5e7eb; stroke-width: 0.6; stroke-linecap: square"/>
     </g>
     <g id="line2d_38">
      <g>
       <use xlink:href="#ma0135f4fc2" x="280.722448" y="70.05819" style="stroke: #000000; stroke-width: 0.8"/>
      </g>
     </g>
     <g id="text_22">
      <text style="font-size: 7px; font-family: 'Arial', 'Helvetica', 'DejaVu Sans', sans-serif; text-anchor: end" x="273.722448" y="72.606286" transform="rotate(-0 273.722448 72.606286)">1.0</text>
     </g>
    </g>
    <g id="text_23">
     <text style="font-size: 8px; font-family: 'Arial', 'Helvetica', 'DejaVu Sans', sans-serif; text-anchor: middle" x="258.308854" y="154.577521" transform="rotate(-90 258.308854 154.577521)">noise-vs-local delta-readout macro-F1</text>
    </g>
   </g>
   <g id="PathCollection_1">
    <defs>
     <path id="m7ab444ef41" d="M 0 3.194305 
C 0.84714 3.194305 1.659696 2.857733 2.258715 2.258715 
C 2.857733 1.659696 3.194305 0.84714 3.194305 0 
C 3.194305 -0.84714 2.857733 -1.659696 2.258715 -2.258715 
C 1.659696 -2.857733 0.84714 -3.194305 0 -3.194305 
C -0.84714 -3.194305 -1.659696 -2.857733 -2.258715 -2.258715 
C -2.857733 -1.659696 -3.194305 -0.84714 -3.194305 0 
C -3.194305 0.84714 -2.857733 1.659696 -2.258715 2.258715 
C -1.659696 2.857733 -0.84714 3.194305 0 3.194305 
z
" style="stroke: #111827; stroke-opacity: 0.92; stroke-width: 0.5"/>
    </defs>
    <g clip-path="url(#pda2a893a73)">
     <use xlink:href="#m7ab444ef41" x="293.181977" y="113.763072" style="fill: #6b7280; fill-opacity: 0.92; stroke: #111827; stroke-opacity: 0.92; stroke-width: 0.5"/>
    </g>
   </g>
   <g id="PathCollection_2">
    <defs>
     <path id="m6c2cb99ef2" d="M 0 3.212655 
C 0.852006 3.212655 1.669231 2.874149 2.27169 2.27169 
C 2.874149 1.669231 3.212655 0.852006 3.212655 0 
C 3.212655 -0.852006 2.874149 -1.669231 2.27169 -2.27169 
C 1.669231 -2.874149 0.852006 -3.212655 0 -3.212655 
C -0.852006 -3.212655 -1.669231 -2.874149 -2.27169 -2.27169 
C -2.874149 -1.669231 -3.212655 -0.852006 -3.212655 0 
C -3.212655 0.852006 -2.874149 1.669231 -2.27169 2.27169 
C -1.669231 2.874149 -0.852006 3.212655 0 3.212655 
z
" style="stroke: #111827; stroke-opacity: 0.92; stroke-width: 0.5"/>
    </defs>
    <g clip-path="url(#pda2a893a73)">
     <use xlink:href="#m6c2cb99ef2" x="296.333593" y="110.265756" style="fill: #2563eb; fill-opacity: 0.92; stroke: #111827; stroke-opacity: 0.92; stroke-width: 0.5"/>
    </g>
   </g>
   <g id="PathCollection_3">
    <defs>
     <path id="mb4670aac54" d="M 0 3.33508 
C 0.884474 3.33508 1.732841 2.983675 2.358258 2.358258 
C 2.983675 1.732841 3.33508 0.884474 3.33508 0 
C 3.33508 -0.884474 2.983675 -1.732841 2.358258 -2.358258 
C 1.732841 -2.983675 0.884474 -3.33508 0 -3.33508 
C -0.884474 -3.33508 -1.732841 -2.983675 -2.358258 -2.358258 
C -2.983675 -1.732841 -3.33508 -0.884474 -3.33508 0 
C -3.33508 0.884474 -2.983675 1.732841 -2.358258 2.358258 
C -1.732841 2.983675 -0.884474 3.33508 0 3.33508 
z
" style="stroke: #111827; stroke-opacity: 0.92; stroke-width: 0.5"/>
    </defs>
    <g clip-path="url(#pda2a893a73)">
     <use xlink:href="#mb4670aac54" x="313.038086" y="79.128352" style="fill: #16a34a; fill-opacity: 0.92; stroke: #111827; stroke-opacity: 0.92; stroke-width: 0.5"/>
    </g>
   </g>
   <g id="PathCollection_4">
    <defs>
     <path id="m0827679a19" d="M 0 3.212655 
C 0.852006 3.212655 1.669231 2.874149 2.27169 2.27169 
C 2.874149 1.669231 3.212655 0.852006 3.212655 0 
C 3.212655 -0.852006 2.874149 -1.669231 2.27169 -2.27169 
C 1.669231 -2.874149 0.852006 -3.212655 0 -3.212655 
C -0.852006 -3.212655 -1.669231 -2.874149 -2.27169 -2.27169 
C -2.874149 -1.669231 -3.212655 -0.852006 -3.212655 0 
C -3.212655 0.852006 -2.874149 1.669231 -2.27169 2.27169 
C -1.669231 2.874149 -0.852006 3.212655 0 3.212655 
z
" style="stroke: #111827; stroke-opacity: 0.92; stroke-width: 0.5"/>
    </defs>
    <g clip-path="url(#pda2a893a73)">
     <use xlink:href="#m0827679a19" x="296.333593" y="192.274116" style="fill: #d97706; fill-opacity: 0.92; stroke: #111827; stroke-opacity: 0.92; stroke-width: 0.5"/>
    </g>
   </g>
   <g id="PathCollection_5">
    <defs>
     <path id="m81778f72c5" d="M 0 3.799015 
C 1.00751 3.799015 1.973892 3.398726 2.686309 2.686309 
C 3.398726 1.973892 3.799015 1.00751 3.799015 0 
C 3.799015 -1.00751 3.398726 -1.973892 2.686309 -2.686309 
C 1.973892 -3.398726 1.00751 -3.799015 0 -3.799015 
C -1.00751 -3.799015 -1.973892 -3.398726 -2.686309 -2.686309 
C -3.398726 -1.973892 -3.799015 -1.00751 -3.799015 0 
C -3.799015 1.00751 -3.398726 1.973892 -2.686309 2.686309 
C -1.973892 3.398726 -1.00751 3.799015 0 3.799015 
z
" style="stroke: #111827; stroke-opacity: 0.92; stroke-width: 0.5"/>
    </defs>
    <g clip-path="url(#pda2a893a73)">
     <use xlink:href="#m81778f72c5" x="348.426504" y="87.573944" style="fill: #7c3aed; fill-opacity: 0.92; stroke: #111827; stroke-opacity: 0.92; stroke-width: 0.5"/>
    </g>
   </g>
   <g id="PathCollection_6">
    <defs>
     <path id="mdfa6c51464" d="M 0 3.799015 
C 1.00751 3.799015 1.973892 3.398726 2.686309 2.686309 
C 3.398726 1.973892 3.799015 1.00751 3.799015 0 
C 3.799015 -1.00751 3.398726 -1.973892 2.686309 -2.686309 
C 1.973892 -3.398726 1.00751 -3.799015 0 -3.799015 
C -1.00751 -3.799015 -1.973892 -3.398726 -2.686309 -2.686309 
C -3.398726 -1.973892 -3.799015 -1.00751 -3.799015 0 
C -3.799015 1.00751 -3.398726 1.973892 -2.686309 2.686309 
C -1.973892 3.398726 -1.00751 3.799015 0 3.799015 
z
" style="stroke: #111827; stroke-opacity: 0.92; stroke-width: 0.5"/>
    </defs>
    <g clip-path="url(#pda2a893a73)">
     <use xlink:href="#mdfa6c51464" x="348.426504" y="77.060014" style="fill: #dc2626; fill-opacity: 0.92; stroke: #111827; stroke-opacity: 0.92; stroke-width: 0.5"/>
    </g>
   </g>
   <g id="PathCollection_7">
    <defs>
     <path id="m75a2e8f157" d="M 0 4.484978 
C 1.18943 4.484978 2.330304 4.012412 3.171358 3.171358 
C 4.012412 2.330304 4.484978 1.18943 4.484978 0 
C 4.484978 -1.18943 4.012412 -2.330304 3.171358 -3.171358 
C 2.330304 -4.012412 1.18943 -4.484978 0 -4.484978 
C -1.18943 -4.484978 -2.330304 -4.012412 -3.171358 -3.171358 
C -4.012412 -2.330304 -4.484978 -1.18943 -4.484978 0 
C -4.484978 1.18943 -4.012412 2.330304 -3.171358 3.171358 
C -2.330304 4.012412 -1.18943 4.484978 0 4.484978 
z
" style="stroke: #111827; stroke-opacity: 0.92; stroke-width: 0.5"/>
    </defs>
    <g clip-path="url(#pda2a893a73)">
     <use xlink:href="#m75a2e8f157" x="376.51339" y="80.808767" style="fill: #db2777; fill-opacity: 0.92; stroke: #111827; stroke-opacity: 0.92; stroke-width: 0.5"/>
    </g>
   </g>
   <g id="PathCollection_8">
    <defs>
     <path id="mb6712f8ffa" d="M 0 5.123475 
C 1.358762 5.123475 2.662055 4.583634 3.622844 3.622844 
C 4.583634 2.662055 5.123475 1.358762 5.123475 0 
C 5.123475 -1.358762 4.583634 -2.662055 3.622844 -3.622844 
C 2.662055 -4.583634 1.358762 -5.123475 0 -5.123475 
C -1.358762 -5.123475 -2.662055 -4.583634 -3.622844 -3.622844 
C -4.583634 -2.662055 -5.123475 -1.358762 -5.123475 0 
C -5.123475 1.358762 -4.583634 2.662055 -3.622844 3.622844 
C -2.662055 4.583634 -1.358762 5.123475 0 5.123475 
z
" style="stroke: #111827; stroke-opacity: 0.92; stroke-width: 0.5"/>
    </defs>
    <g clip-path="url(#pda2a893a73)">
     <use xlink:href="#mb6712f8ffa" x="394.004614" y="81.146327" style="fill: #0891b2; fill-opacity: 0.92; stroke: #111827; stroke-opacity: 0.92; stroke-width: 0.5"/>
    </g>
   </g>
   <g id="patch_14">
    <path d="M 280.722448 251.171043 
L 280.722448 57.984 
" style="fill: none; stroke: #000000; stroke-width: 0.8; stroke-linejoin: miter; stroke-linecap: square"/>
   </g>
   <g id="patch_15">
    <path d="M 280.722448 251.171043 
L 412.743161 251.171043 
" style="fill: none; stroke: #000000; stroke-width: 0.8; stroke-linejoin: miter; stroke-linecap: square"/>
   </g>
   <g id="text_24">
    <text style="font-size: 9px; font-family: 'Arial', 'Helvetica', 'DejaVu Sans', sans-serif; text-anchor: middle" x="346.732804" y="51.984" transform="rotate(-0 346.732804 51.984)">B. Readable local-change signal versus dimension</text>
   </g>
   <g id="legend_1">
    <g id="PathCollection_9">
     <g>
      <use xlink:href="#m7ab444ef41" x="424.203575" y="121.732988" style="fill: #6b7280; fill-opacity: 0.92; stroke: #111827; stroke-opacity: 0.92; stroke-width: 0.5"/>
     </g>
    </g>
    <g id="text_25">
     <text style="font-size: 6.3px; font-family: 'Arial', 'Helvetica', 'DejaVu Sans', sans-serif; text-anchor: start" x="433.023575" y="123.386738" transform="rotate(-0 433.023575 123.386738)">CK4 count</text>
    </g>
    <g id="PathCollection_10">
     <g>
      <use xlink:href="#m6c2cb99ef2" x="424.203575" y="131.110391" style="fill: #2563eb; fill-opacity: 0.92; stroke: #111827; stroke-opacity: 0.92; stroke-width: 0.5"/>
     </g>
    </g>
    <g id="text_26">
     <text style="font-size: 6.3px; font-family: 'Arial', 'Helvetica', 'DejaVu Sans', sans-serif; text-anchor: start" x="433.023575" y="132.764141" transform="rotate(-0 433.023575 132.764141)">CK4+P global</text>
    </g>
    <g id="PathCollection_11">
     <g>
      <use xlink:href="#mb4670aac54" x="424.203575" y="140.487916" style="fill: #16a34a; fill-opacity: 0.92; stroke: #111827; stroke-opacity: 0.92; stroke-width: 0.5"/>
     </g>
    </g>
    <g id="text_27">
     <text style="font-size: 6.3px; font-family: 'Arial', 'Helvetica', 'DejaVu Sans', sans-serif; text-anchor: start" x="433.023575" y="142.141666" transform="rotate(-0 433.023575 142.141666)">CK4P-MSP</text>
    </g>
    <g id="PathCollection_12">
     <g>
      <use xlink:href="#m0827679a19" x="424.203575" y="149.865318" style="fill: #d97706; fill-opacity: 0.92; stroke: #111827; stroke-opacity: 0.92; stroke-width: 0.5"/>
     </g>
    </g>
    <g id="text_28">
     <text style="font-size: 6.3px; font-family: 'Arial', 'Helvetica', 'DejaVu Sans', sans-serif; text-anchor: start" x="433.023575" y="151.519068" transform="rotate(-0 433.023575 151.519068)">CSP control</text>
    </g>
    <g id="PathCollection_13">
     <g>
      <use xlink:href="#m81778f72c5" x="424.203575" y="159.242721" style="fill: #7c3aed; fill-opacity: 0.92; stroke: #111827; stroke-opacity: 0.92; stroke-width: 0.5"/>
     </g>
    </g>
    <g id="text_29">
     <text style="font-size: 6.3px; font-family: 'Arial', 'Helvetica', 'DejaVu Sans', sans-serif; text-anchor: start" x="433.023575" y="160.896471" transform="rotate(-0 433.023575 160.896471)">position one-hot</text>
    </g>
    <g id="PathCollection_14">
     <g>
      <use xlink:href="#mdfa6c51464" x="424.203575" y="168.620123" style="fill: #dc2626; fill-opacity: 0.92; stroke: #111827; stroke-opacity: 0.92; stroke-width: 0.5"/>
     </g>
    </g>
    <g id="text_30">
     <text style="font-size: 6.3px; font-family: 'Arial', 'Helvetica', 'DejaVu Sans', sans-serif; text-anchor: start" x="433.023575" y="170.273873" transform="rotate(-0 433.023575 170.273873)">position property channels</text>
    </g>
    <g id="PathCollection_15">
     <g>
      <use xlink:href="#m75a2e8f157" x="424.203575" y="177.997648" style="fill: #db2777; fill-opacity: 0.92; stroke: #111827; stroke-opacity: 0.92; stroke-width: 0.5"/>
     </g>
    </g>
    <g id="text_31">
     <text style="font-size: 6.3px; font-family: 'Arial', 'Helvetica', 'DejaVu Sans', sans-serif; text-anchor: start" x="433.023575" y="179.651398" transform="rotate(-0 433.023575 179.651398)">one-hot + property</text>
    </g>
    <g id="PathCollection_16">
     <g>
      <use xlink:href="#mb6712f8ffa" x="424.203575" y="187.375174" style="fill: #0891b2; fill-opacity: 0.92; stroke: #111827; stroke-opacity: 0.92; stroke-width: 0.5"/>
     </g>
    </g>
    <g id="text_32">
     <text style="font-size: 6.3px; font-family: 'Arial', 'Helvetica', 'DejaVu Sans', sans-serif; text-anchor: start" x="433.023575" y="189.028924" transform="rotate(-0 433.023575 189.028924)">position k-mer property</text>
    </g>
   </g>
  </g>
  <g id="text_33">
   <text style="font-weight: 700; font-size: 9.5px; font-family: 'Arial', 'Helvetica', 'DejaVu Sans', sans-serif; text-anchor: middle" x="294.830781" y="14.11626" transform="rotate(-0 294.830781 14.11626)">Local biochemical/positional mutation sensitivity is distinct from perturbation invariance</text>
  </g>
 </g>
 <defs>
  <clipPath id="p9cb01c5e36">
   <rect x="95.910781" y="57.984" width="110.897398" height="193.187043"/>
  </clipPath>
  <clipPath id="pda2a893a73">
   <rect x="280.722448" y="57.984" width="132.020712" height="193.187043"/>
  </clipPath>
 </defs>
</svg>
